<svg xmlns="http://www.w3.org/2000/svg" viewBox="0 0 149 39">
  <defs>
    <style>
      .a, .d {
        fill: #07d69f;
      }

      .b {
        fill: #d0a136;
      }

      .c {
        fill: #7f5b12;
      }

      .d {
        font-size: 26px;
        font-family: Montserrat-Bold, Montserrat;
      }

      .e, .f, .g {
        font-weight: 700;
      }

      .e {
        letter-spacing: -0.02em;
      }

      .f {
        letter-spacing: -0.03em;
      }

      .h, .i {
        fill: #595959;
        font-family: Montserrat-Light, Montserrat;
      }

      .i {
        letter-spacing: -0.01em;
      }
    </style>
  </defs>
  <title>Oxyheal-logo</title>
  <g>
    <path class="a" d="M23.74,34.87a24.82,24.82,0,0,1-3,1.18c-4.64,1.18-9.1.92-13.1-2a14.74,14.74,0,0,1-5.16-7.18,22.45,22.45,0,0,1,0-15.9,14.72,14.72,0,0,1,8.32-8.92,15.26,15.26,0,0,1,8.57-.79c5.3.94,8.56,4.29,10.6,9a22.25,22.25,0,0,1,1.52,10.68,18.88,18.88,0,0,1-3.1,9.47c-.09.13-.19.24-.28.36-.32,0-.27-.25-.3-.43a8.16,8.16,0,0,0-1.84-4,8.56,8.56,0,0,0-1.77-1.63.59.59,0,0,1-.25-.23c0-.95.24-1.86.3-2.8a36.6,36.6,0,0,0-.08-6.34,16.26,16.26,0,0,0-1.33-5A6.82,6.82,0,0,0,15.3,6.31a6.84,6.84,0,0,0-5.78,4.58,17.49,17.49,0,0,0-1.14,5.28A35.75,35.75,0,0,0,8.28,20a17.63,17.63,0,0,0,1.29,6.88A7.14,7.14,0,0,0,13.65,31a7.59,7.59,0,0,0,8.24-2.23,4.14,4.14,0,0,1,.5-.56c.22-.13.35,0,.5.14a4.84,4.84,0,0,1,1.37,2.2,6.84,6.84,0,0,1,0,3.45.88.88,0,0,1,0,.16c0,.16-.24.27-.19.47S23.9,34.91,23.74,34.87Z" transform="translate(-1 -1)"/>
    <path class="b" d="M29.12,32.25a9.24,9.24,0,0,1,2-6,8.19,8.19,0,0,1,1.23-1.42,1.86,1.86,0,0,1,2.36.09,1.69,1.69,0,0,1,.59,2,2.94,2.94,0,0,1-.52.74,5.91,5.91,0,0,0-1.44,5.87,8,8,0,0,0,1.17,2c.29.45.67.84,1,1.25a1.84,1.84,0,0,1,0,2.47,1.78,1.78,0,0,1-2.41.34A8.94,8.94,0,0,1,31.38,38a7.73,7.73,0,0,1-1.73-3.17C29.43,34,29.29,33.13,29.12,32.25Z" transform="translate(-1 -1)"/>
    <path class="b" d="M24,24.54a7.23,7.23,0,0,1,3,3.21A20.85,20.85,0,0,1,28,30.54a2.28,2.28,0,0,0,.11.24,14.36,14.36,0,0,1,.11,2A8.79,8.79,0,0,1,27,37a16.44,16.44,0,0,1-1.89,2.43,1.91,1.91,0,0,1-2.91-.16,1.94,1.94,0,0,1,.38-2.8,9.21,9.21,0,0,0,1.16-1.57L24,34.6c.05-.11,0-.24.11-.35h0a5.86,5.86,0,0,0,0-3.69,5.45,5.45,0,0,0-1.61-2.34,2.26,2.26,0,0,1-1-2.38,2.06,2.06,0,0,1,1.64-1.52A.79.79,0,0,1,24,24.54Z" transform="translate(-1 -1)"/>
    <path class="c" d="M29.69,31.78a6.71,6.71,0,0,1,.62-3.25c.17-.34.34-.47.71-.27s1,.51,1.58.73a.56.56,0,0,1,.37.8,16.58,16.58,0,0,0-.36,1.62,4.61,4.61,0,0,0,.47,3c.19.4.16.63-.32.76a8.88,8.88,0,0,0-1.41.53c-.45.21-.67,0-.89-.33A6.44,6.44,0,0,1,29.69,31.78Z" transform="translate(-1 -1)"/>
    <path class="c" d="M24.24,35.19c.85-3.39.92-2.58,0-5.69.72-.24,1.45-.5,2.18-.71a.51.51,0,0,1,.45.2,9,9,0,0,1,.73,2A8.17,8.17,0,0,1,27,36c-.18.36-.39.49-.78.27C25.55,35.87,24.88,35.53,24.24,35.19Z" transform="translate(-1 -1)"/>
  </g>
  <text class="d" transform="translate(36 28.44)"><tspan class="e">O</tspan><tspan class="f" x="21.53" y="0">x</tspan><tspan class="g" x="36.22" y="0">y</tspan><tspan class="h" x="51.77" y="0">H</tspan><tspan class="i" x="72.93" y="0">e</tspan><tspan class="h" x="88.06" y="0">al</tspan></text>
</svg>
